<svg width="1526" height="702" viewBox="0 0 1526 702" fill="none" xmlns="http://www.w3.org/2000/svg">
<circle cx="200" cy="650" r="49.5" fill="white" stroke="black"/>
<circle cx="50" cy="450" r="50" fill="white"/>
<circle cx="50" cy="450" r="49.5" fill="white" stroke="black"/>
<circle cx="200" cy="250" r="49.5" fill="white" stroke="black"/>
<circle cx="800" cy="250" r="49.5" fill="white" stroke="black"/>
<circle cx="650" cy="450" r="49.5" fill="white" stroke="black"/>
<circle cx="1176" cy="450" r="49.5" fill="white" stroke="black"/>
<circle cx="650" cy="650" r="49.5" fill="white" stroke="black"/>
<circle cx="650" cy="50" r="49.5" fill="white" stroke="black"/>
<rect x="300.5" y="400.5" width="99" height="99" fill="#FFFDFD" stroke="black"/>
<rect x="900.5" y="400.5" width="99" height="99" fill="#FFFDFD" stroke="black"/>
<rect x="900.5" y="400.5" width="99" height="99" fill="#FFFDFD" stroke="black"/>
<rect x="1426.5" y="400.5" width="99" height="99" fill="#FFFDFD" stroke="black"/>
<rect x="900.5" y="600.5" width="99" height="99" fill="#FFFDFD" stroke="black"/>
<rect x="1276.5" y="602.5" width="99" height="99" fill="#FFFDFD" stroke="black"/>
<rect x="450.5" y="200.5" width="99" height="99" fill="#FFFDFD" stroke="black"/>
<rect x="300.5" y="0.5" width="99" height="99" fill="#FFFDFD" stroke="black"/>
<line x1="198.5" y1="600" x2="198.5" y2="450" stroke="black" stroke-width="3"/>
<line x1="648.5" y1="600" x2="648.5" y2="574" stroke="black" stroke-width="3"/>
<line x1="948.5" y1="602" x2="948.5" y2="577" stroke="black" stroke-width="3"/>
<line x1="348.5" y1="400" x2="348.5" y2="250" stroke="black" stroke-width="3"/>
<line x1="348.5" y1="400" x2="348.5" y2="250" stroke="black" stroke-width="3"/>
<line x1="100" y1="448.5" x2="300" y2="448.5" stroke="black" stroke-width="3"/>
<line x1="1324.5" y1="602" x2="1324.5" y2="452" stroke="black" stroke-width="3"/>
<line x1="1174.5" y1="400" x2="1174.5" y2="137" stroke="black" stroke-width="3"/>
<line x1="1226" y1="450.5" x2="1426" y2="450.5" stroke="black" stroke-width="3"/>
<line x1="500" y1="135.5" x2="1176" y2="135.5" stroke="black" stroke-width="3"/>
<line x1="650" y1="575.5" x2="950" y2="575.5" stroke="black" stroke-width="3"/>
<line x1="250" y1="248.5" x2="450" y2="248.5" stroke="black" stroke-width="3"/>
<line x1="648.5" y1="400" x2="648.5" y2="250" stroke="black" stroke-width="3"/>
<line x1="550" y1="248.5" x2="750" y2="248.5" stroke="black" stroke-width="3"/>
<line x1="798.5" y1="577" x2="798.5" y2="450" stroke="black" stroke-width="3"/>
<line x1="700" y1="448.5" x2="900" y2="448.5" stroke="black" stroke-width="3"/>
<line x1="498.5" y1="200" x2="498.5" y2="50" stroke="black" stroke-width="3"/>
<line x1="400" y1="48.5" x2="600" y2="48.5" stroke="black" stroke-width="3"/>
<path d="M194.651 640.545V658H191.489V643.622H191.386L187.304 646.23V643.332L191.642 640.545H194.651ZM205.534 658.332C204.131 658.332 202.926 657.977 201.92 657.267C200.92 656.551 200.151 655.52 199.611 654.173C199.077 652.821 198.81 651.193 198.81 649.29C198.815 647.386 199.085 645.767 199.619 644.432C200.159 643.091 200.929 642.068 201.929 641.364C202.935 640.659 204.136 640.307 205.534 640.307C206.932 640.307 208.134 640.659 209.139 641.364C210.145 642.068 210.915 643.091 211.449 644.432C211.989 645.773 212.259 647.392 212.259 649.29C212.259 651.199 211.989 652.83 211.449 654.182C210.915 655.528 210.145 656.557 209.139 657.267C208.139 657.977 206.938 658.332 205.534 658.332ZM205.534 655.665C206.625 655.665 207.486 655.128 208.116 654.054C208.753 652.974 209.071 651.386 209.071 649.29C209.071 647.903 208.926 646.739 208.636 645.795C208.347 644.852 207.938 644.142 207.409 643.665C206.881 643.182 206.256 642.94 205.534 642.94C204.449 642.94 203.591 643.48 202.96 644.56C202.33 645.634 202.011 647.21 202.006 649.29C202 650.682 202.139 651.852 202.423 652.801C202.713 653.75 203.122 654.466 203.651 654.949C204.179 655.426 204.807 655.665 205.534 655.665Z" fill="black"/>
<path d="M646.651 640.545V658H643.489V643.622H643.386L639.304 646.23V643.332L643.642 640.545H646.651ZM658.182 640.545V658H655.02V643.622H654.918L650.835 646.23V643.332L655.173 640.545H658.182Z" fill="black"/>
<path d="M944.651 640.545V658H941.489V643.622H941.386L937.304 646.23V643.332L941.642 640.545H944.651ZM949.082 658V655.716L955.142 649.776C955.722 649.19 956.205 648.67 956.591 648.216C956.977 647.761 957.267 647.321 957.46 646.895C957.653 646.469 957.75 646.014 957.75 645.531C957.75 644.98 957.625 644.509 957.375 644.116C957.125 643.719 956.781 643.412 956.344 643.196C955.906 642.98 955.409 642.872 954.852 642.872C954.278 642.872 953.776 642.991 953.344 643.23C952.912 643.463 952.577 643.795 952.338 644.227C952.105 644.659 951.989 645.173 951.989 645.77H948.98C948.98 644.662 949.233 643.699 949.739 642.881C950.244 642.062 950.94 641.429 951.827 640.98C952.719 640.531 953.741 640.307 954.895 640.307C956.065 640.307 957.094 640.526 957.98 640.963C958.866 641.401 959.554 642 960.043 642.761C960.537 643.523 960.784 644.392 960.784 645.369C960.784 646.023 960.659 646.665 960.409 647.295C960.159 647.926 959.719 648.625 959.088 649.392C958.463 650.159 957.585 651.088 956.455 652.179L953.446 655.239V655.358H961.048V658H949.082Z" fill="black"/>
<path d="M1320.65 640.545V658H1317.49V643.622H1317.39L1313.3 646.23V643.332L1317.64 640.545H1320.65ZM1331.15 658.239C1330.01 658.239 1329 658.026 1328.1 657.599C1327.2 657.168 1326.49 656.577 1325.96 655.827C1325.44 655.077 1325.16 654.219 1325.12 653.253H1328.19C1328.25 653.969 1328.56 654.554 1329.12 655.009C1329.68 655.457 1330.36 655.682 1331.15 655.682C1331.77 655.682 1332.32 655.54 1332.8 655.256C1333.29 654.972 1333.67 654.577 1333.95 654.071C1334.22 653.565 1334.36 652.989 1334.36 652.341C1334.36 651.682 1334.22 651.097 1333.94 650.585C1333.65 650.074 1333.26 649.673 1332.77 649.384C1332.28 649.088 1331.71 648.94 1331.07 648.94C1330.54 648.935 1330.03 649.031 1329.52 649.23C1329.02 649.429 1328.62 649.69 1328.32 650.014L1325.47 649.545L1326.38 640.545H1336.5V643.188H1328.99L1328.49 647.815H1328.59C1328.92 647.435 1329.38 647.119 1329.97 646.869C1330.56 646.614 1331.2 646.486 1331.91 646.486C1332.97 646.486 1333.91 646.736 1334.74 647.236C1335.57 647.73 1336.22 648.412 1336.7 649.281C1337.18 650.151 1337.41 651.145 1337.41 652.264C1337.41 653.418 1337.15 654.446 1336.61 655.349C1336.09 656.247 1335.35 656.955 1334.41 657.472C1333.47 657.983 1332.38 658.239 1331.15 658.239Z" fill="black"/>
<path d="M1170.65 440.545V458H1167.49V443.622H1167.39L1163.3 446.23V443.332L1167.64 440.545H1170.65ZM1181.35 458.239C1180.12 458.239 1179.03 458.028 1178.07 457.608C1177.13 457.187 1176.38 456.602 1175.82 455.852C1175.27 455.102 1174.98 454.236 1174.95 453.253H1178.15C1178.18 453.724 1178.34 454.136 1178.62 454.489C1178.9 454.835 1179.28 455.105 1179.75 455.298C1180.22 455.491 1180.75 455.588 1181.34 455.588C1181.96 455.588 1182.52 455.48 1183 455.264C1183.48 455.043 1183.86 454.736 1184.13 454.344C1184.41 453.952 1184.54 453.5 1184.53 452.989C1184.54 452.46 1184.4 451.994 1184.12 451.591C1183.85 451.187 1183.44 450.872 1182.91 450.645C1182.39 450.418 1181.76 450.304 1181.02 450.304H1179.48V447.866H1181.02C1181.63 447.866 1182.16 447.761 1182.62 447.551C1183.08 447.341 1183.44 447.045 1183.7 446.665C1183.96 446.278 1184.09 445.832 1184.08 445.327C1184.09 444.832 1183.98 444.403 1183.75 444.04C1183.53 443.67 1183.21 443.384 1182.8 443.179C1182.4 442.974 1181.93 442.872 1181.38 442.872C1180.85 442.872 1180.35 442.969 1179.9 443.162C1179.44 443.355 1179.08 443.631 1178.8 443.989C1178.52 444.341 1178.37 444.761 1178.36 445.25H1175.31C1175.34 444.273 1175.62 443.415 1176.16 442.676C1176.7 441.932 1177.43 441.352 1178.34 440.938C1179.25 440.517 1180.27 440.307 1181.4 440.307C1182.56 440.307 1183.57 440.526 1184.43 440.963C1185.3 441.395 1185.96 441.977 1186.43 442.71C1186.91 443.443 1187.14 444.253 1187.14 445.139C1187.15 446.122 1186.86 446.946 1186.27 447.611C1185.69 448.276 1184.93 448.71 1183.99 448.915V449.051C1185.22 449.222 1186.16 449.676 1186.81 450.415C1187.47 451.148 1187.8 452.06 1187.79 453.151C1187.79 454.128 1187.51 455.003 1186.95 455.776C1186.4 456.543 1185.64 457.145 1184.67 457.582C1183.7 458.02 1182.6 458.239 1181.35 458.239Z" fill="black"/>
<path d="M1470.65 440.545V458H1467.49V443.622H1467.39L1463.3 446.23V443.332L1467.64 440.545H1470.65ZM1474.77 454.761V452.247L1482.17 440.545H1484.27V444.125H1482.99L1478.01 452.026V452.162H1488.34V454.761H1474.77ZM1483.09 458V453.994L1483.13 452.869V440.545H1486.11V458H1483.09Z" fill="black"/>
<path d="M950.756 458.239C949.489 458.239 948.364 458.026 947.381 457.599C946.403 457.173 945.636 456.591 945.08 455.852C944.528 455.108 944.256 454.264 944.261 453.321C944.256 452.588 944.415 451.915 944.739 451.301C945.063 450.688 945.5 450.176 946.051 449.767C946.608 449.352 947.227 449.088 947.909 448.974V448.855C947.011 448.656 946.284 448.199 945.727 447.483C945.176 446.761 944.903 445.929 944.909 444.986C944.903 444.088 945.153 443.287 945.659 442.582C946.165 441.878 946.858 441.324 947.739 440.92C948.619 440.511 949.625 440.307 950.756 440.307C951.875 440.307 952.872 440.511 953.747 440.92C954.628 441.324 955.321 441.878 955.827 442.582C956.338 443.287 956.594 444.088 956.594 444.986C956.594 445.929 956.312 446.761 955.75 447.483C955.193 448.199 954.474 448.656 953.594 448.855V448.974C954.276 449.088 954.889 449.352 955.435 449.767C955.986 450.176 956.423 450.688 956.747 451.301C957.077 451.915 957.241 452.588 957.241 453.321C957.241 454.264 956.963 455.108 956.406 455.852C955.849 456.591 955.082 457.173 954.105 457.599C953.134 458.026 952.017 458.239 950.756 458.239ZM950.756 455.801C951.409 455.801 951.977 455.69 952.46 455.469C952.943 455.241 953.318 454.923 953.585 454.514C953.852 454.105 953.989 453.634 953.994 453.099C953.989 452.543 953.844 452.051 953.56 451.625C953.281 451.193 952.898 450.855 952.409 450.611C951.926 450.366 951.375 450.244 950.756 450.244C950.131 450.244 949.574 450.366 949.085 450.611C948.597 450.855 948.21 451.193 947.926 451.625C947.648 452.051 947.511 452.543 947.517 453.099C947.511 453.634 947.642 454.105 947.909 454.514C948.176 454.918 948.551 455.233 949.034 455.46C949.523 455.687 950.097 455.801 950.756 455.801ZM950.756 447.849C951.29 447.849 951.761 447.741 952.17 447.526C952.585 447.31 952.912 447.009 953.151 446.622C953.389 446.236 953.511 445.79 953.517 445.284C953.511 444.784 953.392 444.347 953.159 443.972C952.926 443.591 952.602 443.298 952.188 443.094C951.773 442.884 951.295 442.778 950.756 442.778C950.205 442.778 949.719 442.884 949.298 443.094C948.884 443.298 948.56 443.591 948.327 443.972C948.099 444.347 947.989 444.784 947.994 445.284C947.989 445.79 948.102 446.236 948.335 446.622C948.574 447.003 948.901 447.304 949.315 447.526C949.736 447.741 950.216 447.849 950.756 447.849Z" fill="black"/>
<path d="M644.19 458L651.614 443.307V443.188H642.997V440.545H654.886V443.247L647.472 458H644.19Z" fill="black"/>
<path d="M349.943 458.239C349.108 458.233 348.293 458.088 347.497 457.804C346.702 457.514 345.986 457.045 345.349 456.398C344.713 455.744 344.207 454.878 343.832 453.798C343.457 452.713 343.273 451.369 343.278 449.767C343.278 448.273 343.438 446.94 343.756 445.77C344.074 444.599 344.531 443.611 345.128 442.804C345.724 441.991 346.443 441.372 347.284 440.946C348.131 440.52 349.077 440.307 350.122 440.307C351.219 440.307 352.19 440.523 353.037 440.955C353.889 441.386 354.577 441.977 355.099 442.727C355.622 443.472 355.946 444.312 356.071 445.25H352.96C352.801 444.58 352.474 444.045 351.98 443.648C351.491 443.244 350.872 443.043 350.122 443.043C348.912 443.043 347.98 443.568 347.327 444.619C346.679 445.67 346.352 447.114 346.347 448.949H346.466C346.744 448.449 347.105 448.02 347.548 447.662C347.991 447.304 348.491 447.028 349.048 446.835C349.611 446.636 350.205 446.537 350.83 446.537C351.852 446.537 352.77 446.781 353.582 447.27C354.401 447.759 355.048 448.432 355.526 449.29C356.003 450.142 356.239 451.119 356.233 452.222C356.239 453.369 355.977 454.401 355.449 455.315C354.92 456.224 354.185 456.94 353.241 457.463C352.298 457.986 351.199 458.244 349.943 458.239ZM349.926 455.682C350.545 455.682 351.099 455.531 351.588 455.23C352.077 454.929 352.463 454.523 352.747 454.011C353.031 453.5 353.17 452.926 353.165 452.29C353.17 451.665 353.034 451.099 352.756 450.594C352.483 450.088 352.105 449.687 351.622 449.392C351.139 449.097 350.588 448.949 349.969 448.949C349.509 448.949 349.08 449.037 348.682 449.213C348.284 449.389 347.938 449.634 347.642 449.946C347.347 450.253 347.114 450.611 346.943 451.02C346.778 451.423 346.693 451.855 346.688 452.315C346.693 452.923 346.835 453.483 347.114 453.994C347.392 454.506 347.776 454.915 348.264 455.222C348.753 455.528 349.307 455.682 349.926 455.682Z" fill="black"/>
<path d="M499.815 259.239C498.588 259.239 497.497 259.028 496.543 258.608C495.594 258.187 494.844 257.602 494.293 256.852C493.741 256.102 493.449 255.236 493.415 254.253H496.619C496.648 254.724 496.804 255.136 497.088 255.489C497.372 255.835 497.75 256.105 498.222 256.298C498.693 256.491 499.222 256.588 499.807 256.588C500.432 256.588 500.986 256.48 501.469 256.264C501.952 256.043 502.33 255.736 502.602 255.344C502.875 254.952 503.009 254.5 503.003 253.989C503.009 253.46 502.872 252.994 502.594 252.591C502.315 252.187 501.912 251.872 501.384 251.645C500.861 251.418 500.23 251.304 499.491 251.304H497.949V248.866H499.491C500.099 248.866 500.631 248.761 501.085 248.551C501.545 248.341 501.906 248.045 502.168 247.665C502.429 247.278 502.557 246.832 502.551 246.327C502.557 245.832 502.446 245.403 502.219 245.04C501.997 244.67 501.682 244.384 501.273 244.179C500.869 243.974 500.395 243.872 499.849 243.872C499.315 243.872 498.821 243.969 498.366 244.162C497.912 244.355 497.545 244.631 497.267 244.989C496.989 245.341 496.841 245.761 496.824 246.25H493.781C493.804 245.273 494.085 244.415 494.625 243.676C495.17 242.932 495.898 242.352 496.807 241.938C497.716 241.517 498.736 241.307 499.866 241.307C501.031 241.307 502.043 241.526 502.901 241.963C503.764 242.395 504.432 242.977 504.903 243.71C505.375 244.443 505.611 245.253 505.611 246.139C505.616 247.122 505.327 247.946 504.741 248.611C504.162 249.276 503.401 249.71 502.457 249.915V250.051C503.685 250.222 504.625 250.676 505.278 251.415C505.938 252.148 506.264 253.06 506.259 254.151C506.259 255.128 505.98 256.003 505.423 256.776C504.872 257.543 504.111 258.145 503.139 258.582C502.173 259.02 501.065 259.239 499.815 259.239Z" fill="black"/>
<path d="M193.236 255.761V253.247L200.642 241.545H202.739V245.125H201.46L196.474 253.026V253.162H206.812V255.761H193.236ZM201.562 259V254.994L201.597 253.869V241.545H204.58V259H201.562Z" fill="black"/>
<path d="M350.651 41.5455V59H347.489V44.6222H347.386L343.304 47.2301V44.3324L347.642 41.5455H350.651Z" fill="black"/>
<path d="M643.551 59V56.7159L649.611 50.7756C650.19 50.1903 650.673 49.6705 651.06 49.2159C651.446 48.7614 651.736 48.321 651.929 47.8949C652.122 47.4687 652.219 47.0142 652.219 46.5312C652.219 45.9801 652.094 45.5085 651.844 45.1165C651.594 44.7188 651.25 44.4119 650.812 44.196C650.375 43.9801 649.878 43.8722 649.321 43.8722C648.747 43.8722 648.244 43.9915 647.812 44.2301C647.381 44.4631 647.045 44.7955 646.807 45.2273C646.574 45.6591 646.457 46.1733 646.457 46.7699H643.449C643.449 45.6619 643.702 44.6989 644.207 43.8807C644.713 43.0625 645.409 42.429 646.295 41.9801C647.188 41.5312 648.21 41.3068 649.364 41.3068C650.534 41.3068 651.563 41.5256 652.449 41.9631C653.335 42.4006 654.023 43 654.511 43.7614C655.006 44.5227 655.253 45.392 655.253 46.3693C655.253 47.0227 655.128 47.6648 654.878 48.2955C654.628 48.9261 654.188 49.625 653.557 50.392C652.932 51.1591 652.054 52.0881 650.923 53.179L647.915 56.2386V56.358H655.517V59H643.551Z" fill="black"/>
<path d="M799.619 259.239C798.483 259.239 797.466 259.026 796.568 258.599C795.67 258.168 794.957 257.577 794.429 256.827C793.906 256.077 793.628 255.219 793.594 254.253H796.662C796.719 254.969 797.028 255.554 797.591 256.009C798.153 256.457 798.83 256.682 799.619 256.682C800.239 256.682 800.79 256.54 801.273 256.256C801.756 255.972 802.136 255.577 802.415 255.071C802.693 254.565 802.83 253.989 802.824 253.341C802.83 252.682 802.69 252.097 802.406 251.585C802.122 251.074 801.733 250.673 801.239 250.384C800.744 250.088 800.176 249.94 799.534 249.94C799.011 249.935 798.497 250.031 797.991 250.23C797.486 250.429 797.085 250.69 796.79 251.014L793.935 250.545L794.847 241.545H804.972V244.188H797.463L796.96 248.815H797.062C797.386 248.435 797.844 248.119 798.435 247.869C799.026 247.614 799.673 247.486 800.378 247.486C801.435 247.486 802.378 247.736 803.207 248.236C804.037 248.73 804.69 249.412 805.168 250.281C805.645 251.151 805.884 252.145 805.884 253.264C805.884 254.418 805.616 255.446 805.082 256.349C804.554 257.247 803.818 257.955 802.875 258.472C801.938 258.983 800.852 259.239 799.619 259.239Z" fill="black"/>
<path d="M49.6108 440.307C50.446 440.312 51.2585 440.46 52.0483 440.75C52.8438 441.034 53.5597 441.5 54.196 442.148C54.8324 442.79 55.3381 443.651 55.7131 444.73C56.0881 445.81 56.2756 447.145 56.2756 448.736C56.2813 450.236 56.1222 451.577 55.7983 452.759C55.4801 453.935 55.0227 454.929 54.4261 455.741C53.8295 456.554 53.1108 457.173 52.2699 457.599C51.429 458.026 50.483 458.239 49.4318 458.239C48.3295 458.239 47.3523 458.023 46.5 457.591C45.6534 457.159 44.9688 456.568 44.446 455.818C43.9233 455.068 43.6023 454.21 43.483 453.244H46.5938C46.7528 453.937 47.0767 454.489 47.5653 454.898C48.0597 455.301 48.6818 455.503 49.4318 455.503C50.642 455.503 51.5739 454.977 52.2273 453.926C52.8807 452.875 53.2074 451.415 53.2074 449.545H53.0881C52.8097 450.045 52.4489 450.477 52.0057 450.841C51.5625 451.199 51.0597 451.474 50.4972 451.668C49.9403 451.861 49.3494 451.957 48.7244 451.957C47.7017 451.957 46.7813 451.713 45.9631 451.224C45.1506 450.736 44.5057 450.065 44.0284 449.213C43.5568 448.361 43.3182 447.386 43.3125 446.29C43.3125 445.153 43.5739 444.134 44.0966 443.23C44.625 442.321 45.3608 441.605 46.304 441.082C47.2472 440.554 48.3494 440.295 49.6108 440.307ZM49.6193 442.864C49.0057 442.864 48.4517 443.014 47.9574 443.315C47.4688 443.611 47.0824 444.014 46.7983 444.526C46.5199 445.031 46.3807 445.597 46.3807 446.222C46.3864 446.841 46.5256 447.403 46.7983 447.909C47.0767 448.415 47.4545 448.815 47.9318 449.111C48.4148 449.406 48.9659 449.554 49.5852 449.554C50.0455 449.554 50.4744 449.466 50.8722 449.29C51.2699 449.114 51.6165 448.869 51.9119 448.557C52.2131 448.239 52.446 447.878 52.6108 447.474C52.7813 447.071 52.8636 446.645 52.858 446.196C52.858 445.599 52.7159 445.048 52.4318 444.543C52.1534 444.037 51.7699 443.631 51.2812 443.324C50.7983 443.017 50.2443 442.864 49.6193 442.864Z" fill="black"/>
</svg>
