<svg width="904" height="873" viewBox="0 0 904 873" fill="none" xmlns="http://www.w3.org/2000/svg">
<line x1="23.7161" y1="787.224" x2="232.716" y2="441.224" stroke="black" stroke-width="3"/>
<line x1="442.718" y1="788.778" x2="232.718" y2="442.778" stroke="black" stroke-width="3"/>
<line x1="662.976" y1="76.1387" x2="234.976" y2="443.139" stroke="black" stroke-width="3"/>
<line x1="663.435" y1="74.5633" x2="880.435" y2="787.563" stroke="black" stroke-width="3"/>
<circle cx="25" cy="788" r="25" fill="#707070"/>
<circle cx="444" cy="788" r="25" fill="#707070"/>
<circle cx="879" cy="788" r="25" fill="#707070"/>
<circle cx="661.5" cy="75" r="25" fill="#707070"/>
<circle cx="234.5" cy="442" r="25" fill="#707070"/>
<path d="M28.5341 841.727V865H24.3182V845.83H24.1818L18.7386 849.307V845.443L24.5227 841.727H28.5341Z" fill="black"/>
<path d="M438.068 865V861.955L446.148 854.034C446.92 853.254 447.564 852.561 448.08 851.955C448.595 851.348 448.981 850.761 449.239 850.193C449.496 849.625 449.625 849.019 449.625 848.375C449.625 847.64 449.458 847.011 449.125 846.489C448.792 845.958 448.333 845.549 447.75 845.261C447.167 844.973 446.504 844.83 445.761 844.83C444.996 844.83 444.326 844.989 443.75 845.307C443.174 845.617 442.727 846.061 442.409 846.636C442.098 847.212 441.943 847.898 441.943 848.693H437.932C437.932 847.216 438.269 845.932 438.943 844.841C439.617 843.75 440.545 842.905 441.727 842.307C442.917 841.708 444.28 841.409 445.818 841.409C447.379 841.409 448.75 841.701 449.932 842.284C451.114 842.867 452.03 843.667 452.682 844.682C453.341 845.697 453.67 846.856 453.67 848.159C453.67 849.03 453.504 849.886 453.17 850.727C452.837 851.568 452.25 852.5 451.409 853.523C450.576 854.545 449.405 855.784 447.898 857.239L443.886 861.318V861.477H454.023V865H438.068Z" fill="black"/>
<path d="M661.159 31.3182C659.644 31.3182 658.288 31.0341 657.091 30.4659C655.894 29.8902 654.943 29.1023 654.239 28.1023C653.542 27.1023 653.17 25.9583 653.125 24.6705H657.216C657.292 25.625 657.705 26.4053 658.455 27.0114C659.205 27.6098 660.106 27.9091 661.159 27.9091C661.985 27.9091 662.72 27.7197 663.364 27.3409C664.008 26.9621 664.515 26.4356 664.886 25.7614C665.258 25.0871 665.439 24.3182 665.432 23.4545C665.439 22.5758 665.254 21.7955 664.875 21.1136C664.496 20.4318 663.977 19.8977 663.318 19.5114C662.659 19.1174 661.902 18.9205 661.045 18.9205C660.348 18.9129 659.663 19.0417 658.989 19.3068C658.314 19.572 657.78 19.9205 657.386 20.3523L653.58 19.7273L654.795 7.72727H668.295V11.25H658.284L657.614 17.4205H657.75C658.182 16.9129 658.792 16.4924 659.58 16.1591C660.367 15.8182 661.231 15.6477 662.17 15.6477C663.58 15.6477 664.837 15.9811 665.943 16.6477C667.049 17.3068 667.92 18.2159 668.557 19.375C669.193 20.5341 669.511 21.8598 669.511 23.3523C669.511 24.8902 669.155 26.2614 668.443 27.4659C667.739 28.6629 666.758 29.6061 665.5 30.2955C664.25 30.9773 662.803 31.3182 661.159 31.3182Z" fill="black"/>
<path d="M281.648 454.682V451.33L291.523 435.727H294.318V440.5H292.614L285.966 451.034V451.216H299.75V454.682H281.648ZM292.75 459V453.659L292.795 452.159V435.727H296.773V459H292.75Z" fill="black"/>
<path d="M878.42 865.318C876.784 865.318 875.33 865.038 874.057 864.477C872.792 863.917 871.792 863.136 871.057 862.136C870.322 861.136 869.932 859.981 869.886 858.67H874.159C874.197 859.299 874.405 859.848 874.784 860.318C875.163 860.78 875.667 861.14 876.295 861.398C876.924 861.655 877.629 861.784 878.409 861.784C879.242 861.784 879.981 861.64 880.625 861.352C881.269 861.057 881.773 860.648 882.136 860.125C882.5 859.602 882.678 859 882.67 858.318C882.678 857.614 882.496 856.992 882.125 856.455C881.754 855.917 881.216 855.496 880.511 855.193C879.814 854.89 878.973 854.739 877.989 854.739H875.932V851.489H877.989C878.799 851.489 879.508 851.348 880.114 851.068C880.727 850.788 881.208 850.394 881.557 849.886C881.905 849.371 882.076 848.777 882.068 848.102C882.076 847.443 881.928 846.871 881.625 846.386C881.33 845.894 880.909 845.511 880.364 845.239C879.826 844.966 879.193 844.83 878.466 844.83C877.754 844.83 877.095 844.958 876.489 845.216C875.883 845.473 875.394 845.841 875.023 846.318C874.652 846.788 874.455 847.348 874.432 848H870.375C870.405 846.697 870.78 845.553 871.5 844.568C872.227 843.576 873.197 842.803 874.409 842.25C875.621 841.689 876.981 841.409 878.489 841.409C880.042 841.409 881.39 841.701 882.534 842.284C883.686 842.86 884.576 843.636 885.205 844.614C885.833 845.591 886.148 846.67 886.148 847.852C886.155 849.163 885.769 850.261 884.989 851.148C884.216 852.034 883.201 852.614 881.943 852.886V853.068C883.58 853.295 884.833 853.902 885.705 854.886C886.583 855.864 887.019 857.08 887.011 858.534C887.011 859.837 886.64 861.004 885.898 862.034C885.163 863.057 884.148 863.86 882.852 864.443C881.564 865.027 880.087 865.318 878.42 865.318Z" fill="black"/>
</svg>
